PathFileType	4	(X/Y/Z)	Run_400 01
DataRate	CameraRate	NumFrames	NumMarkers	Units	OrigDataRate	OrigDataStartFrame	OrigNumFrames
120	120	7	41	mm	120	70	125
Frame#	Time	LASI			RASI			LPSI			RPSI			RTH1			RTH3			LTH1			LTH2			LTH3			RTB1			RTB2			RTB3			LTB1			LTB2			LTB3			RCAL			RTOE			RMT5			LCAL			LTOE			LMT5			LACR			RACR			CLAV			C7			RUA1			RUA2			RUA3			RLEL			RMEL			LUA1			LUA2			LUA3			LLEL			LMEL			RFAsuperior			RFAradius			RFAulna			LFAsuperior			LFAradius			LFAulna			
		X1	Y1	Z1	X2	Y2	Z2	X3	Y3	Z3	X4	Y4	Z4	X5	Y5	Z5	X6	Y6	Z6	X7	Y7	Z7	X8	Y8	Z8	X9	Y9	Z9	X10	Y10	Z10	X11	Y11	Z11	X12	Y12	Z12	X13	Y13	Z13	X14	Y14	Z14	X15	Y15	Z15	X16	Y16	Z16	X17	Y17	Z17	X18	Y18	Z18	X19	Y19	Z19	X20	Y20	Z20	X21	Y21	Z21	X22	Y22	Z22	X23	Y23	Z23	X24	Y24	Z24	X25	Y25	Z25	X26	Y26	Z26	X27	Y27	Z27	X28	Y28	Z28	X29	Y29	Z29	X30	Y30	Z30	X31	Y31	Z31	X32	Y32	Z32	X33	Y33	Z33	X34	Y34	Z34	X35	Y35	Z35	X36	Y36	Z36	X37	Y37	Z37	X38	Y38	Z38	X39	Y39	Z39	X40	Y40	Z40	X41	Y41	Z41	

64	0.866667	936.352595	977.007985	-430.790537	945.542142	964.008659	-197.533904	780.244859	1016.370322	-359.096248	777.980729	1008.984871	-262.373675	925.5779669999999	815.635805	-138.741818	1099.711779	633.091126	-161.130575	856.671978	787.594235	-482.717498	893.3090989999999	672.57077	-455.621182	809.609706	571.328039	-416.52497	1051.902284	488.53368	-226.393088	986.517931	508.647323	-159.484894	929.080821	470.068999	-223.256997	782.423254	348.763858	-316.173455	709.598779	296.842665	-383.13781	680.250372	214.961105	-302.524189	734.005297	523.925531	-221.486953	794.132508	321.224289	-224.351038	783.301051	348.027578	-132.732048	512.239382	137.458708	-293.293401	707.576225	76.395082	-258.441742	691.757932	59.26537	-346.862152	980.001695	1426.005516	-491.712489	885.376345	1435.251003	-108.958415	990.244153	1422.335166	-265.043178	878.6114250000001	1487.857428	-328.547911	782.337232	1334.644497	-68.622512	720.051171	1350.858365	-110.311727	711.7306139999999	1280.017483	-50.066023	651.01204	1236.464829	-39.184285	631.63321	1221.988196	-117.776766	932.336399	1298.037177	-561.494524	863.094509	1255.436407	-572.313435	930.305966	1213.280215	-581.276969	890.215965	1142.844446	-617.3898799999999	831.465108	1133.564513	-553.449699	689.168479	1112.79778	-27.426874	714.795381	998.491233	-69.547715	662.081689	990.554836	-23.010435	1000.20094	1109.863842	-554.183747	1057.707118	1121.288752	-443.197556	1082.635818	1073.229101	-486.943367	
65	0.875	940.729705	980.417198	-431.61708	948.469214	972.381288	-198.412488	784.540179	1021.405596	-361.885518	780.419746	1015.355317	-265.38755	928.563161	825.614133	-137.750776	1107.49864	645.147789	-165.426832	853.957956	792.171065	-481.819091	884.733053	676.569309	-453.383922	791.6576700000001	580.0147459999999	-416.609142	1069.488832	492.630584	-230.066271	1001.875535	508.246818	-162.311979	947.267525	464.514945	-225.272053	755.5401419999999	357.162142	-318.548382	680.72369	307.303753	-385.053655	652.687152	223.93	-304.503735	748.113861	499.575804	-221.978959	829.417286	304.207077	-226.01199	816.036268	329.523127	-133.876741	484.829207	149.019905	-296.20386	675.914609	77.144431	-259.094293	659.422653	59.497535	-347.124318	982.619854	1433.805997	-489.296933	880.0138470000001	1443.502235	-109.776889	988.089828	1429.98314	-262.753225	877.563174	1493.934038	-328.553601	775.785304	1345.09867	-70.032934	714.787294	1362.388554	-112.757859	704.556584	1291.12641	-52.552313	642.885713	1248.340288	-42.879588	624.97808	1234.324135	-121.999793	938.338566	1305.624898	-560.44735	870.0704050000001	1262.520894	-573.621459	937.665241	1221.069856	-580.225648	899.070905	1150.123517	-617.367431	838.444016	1140.384082	-554.519772	681.003078	1124.990994	-31.16599	707.660161	1010.996816	-72.794721	654.027974	1002.308031	-27.779117	1007.900492	1121.23314	-550.560835	1061.788099	1135.660389	-437.817386	1089.509695	1087.92382	-480.38828	
66	0.883333	945.4601719999999	984.069856	-432.053834	951.802459	980.940613	-199.35013	789.2079660000001	1026.75518	-364.441305	783.406749	1021.928234	-268.183213	932.892695	835.572091	-136.852766	1114.149269	656.344498	-169.683015	852.94337	796.802406	-481.22561	876.585322	681.368609	-451.164844	775.4386909999999	590.106726	-417.443366	1086.261506	496.180509	-233.463896	1016.956194	506.873081	-165.04583	966.254668	458.13189	-227.663678	730.514443	367.937833	-321.7449	653.827784	320.102647	-387.895503	627.384798	234.635417	-307.64288	764.442277	474.257166	-222.853638	865.419552	288.16385	-228.569298	849.690621	311.628022	-135.59958	460.175395	162.535132	-299.492568	645.012962	77.50147699999999	-259.716736	627.766923	59.663124	-347.597687	985.216938	1441.897854	-486.98337	875.02381	1451.685493	-110.678801	985.871525	1437.720534	-260.556628	876.632833	1500.167243	-328.524139	769.541908	1355.629809	-71.65319700000001	709.946005	1373.944016	-115.387957	697.739205	1302.296503	-55.274186	635.259488	1260.166772	-46.725832	618.896149	1246.375918	-126.332639	943.905574	1313.698235	-559.4895770000001	876.656063	1270.140385	-574.865043	944.598023	1229.429933	-579.4804339999999	907.373225	1158.023075	-617.573048	844.834764	1147.88246	-555.794678	673.623874	1137.179423	-34.991115	701.653695	1023.574684	-76.097635	647.161697	1013.937164	-32.645038	1014.75523	1132.841503	-547.285019	1064.908652	1149.818934	-432.910453	1095.23548	1102.506187	-474.258007	
67	0.891667	950.463492	987.956099	-432.21917	955.280923	989.586032	-200.047735	794.113577	1032.336485	-366.562347	786.721665	1028.865362	-270.428246	938.7235930000001	845.484769	-136.185833	1119.774326	666.5843609999999	-173.85193	852.534729	801.6773889999999	-481.070701	868.329506	687.059085	-449.390954	760.771057	601.419462	-418.950598	1102.078736	499.247432	-236.610045	1031.910847	504.425821	-167.766042	985.957002	451.05202	-230.44618	707.361803	380.544966	-325.714594	629.015581	334.73551	-391.743279	604.518109	246.414792	-312.422073	783.0358189999999	448.311704	-224.136472	901.926178	273.110247	-231.844921	884.287925	294.468852	-137.954469	438.811346	177.463241	-303.308374	615.126332	77.82255499999999	-260.627049	596.725363	59.614807	-348.271345	987.754647	1450.02328	-484.714874	870.488608	1459.584817	-111.587385	983.725235	1445.294712	-258.437372	875.802246	1506.387717	-328.47281	763.690398	1365.966876	-73.40785700000001	705.508954	1385.15788	-118.150017	691.296514	1313.271827	-58.117623	628.164518	1271.730176	-50.589333	613.285572	1258.073053	-130.713798	949.093874	1322.044112	-558.6261019999999	882.786521	1278.178903	-575.9882229999999	951.086697	1238.12937	-579.017355	915.112394	1166.286343	-617.88409	850.6493379999999	1155.863271	-557.2465979999999	666.982977	1149.141301	-38.743937	696.598946	1035.874656	-79.44440400000001	641.374559	1025.287666	-37.404714	1020.819716	1144.420042	-544.270336	1067.153401	1163.552133	-428.42854	1099.91685	1116.742898	-468.508201	
68	0.9	955.626259	992.029406	-432.215942	958.774347	998.183767	-200.343613	799.117105	1037.92107	-368.091032	790.166105	1036.126606	-271.872624	945.615507	855.4695809999999	-135.795388	1124.398537	675.704977	-177.951963	851.960416	807.152151	-481.367312	860.115482	693.514189	-448.283403	747.40104	613.7833450000001	-420.773941	1116.888478	501.733432	-239.637952	1046.804037	500.828017	-170.626637	1006.016271	443.511623	-233.606022	686.0734179999999	394.334488	-330.255909	606.1632530000001	350.657129	-396.425688	584.120658	258.71563	-318.938203	803.771046	421.987914	-225.749095	938.925752	259.102185	-235.846036	919.963928	278.151677	-141.133407	420.99725	193.471782	-308.011539	586.738306	78.986844	-262.365144	566.285558	59.454393	-349.031607	990.133473	1457.951535	-482.457632	866.402763	1467.045337	-112.497656	981.771941	1452.485757	-256.433652	875.036116	1512.44167	-328.429356	758.304048	1375.843007	-75.219553	701.484837	1395.757693	-121.012202	685.270641	1323.860194	-60.948089	621.61523	1282.841315	-54.368676	608.101148	1269.297169	-135.063463	953.9593609999999	1330.455881	-557.859731	888.432131	1286.490053	-576.989719	957.091259	1246.930444	-578.7760950000001	922.272281	1174.677726	-618.240041	855.948198	1164.060812	-558.886823	661.05444	1160.679042	-42.370472	692.342709	1047.638046	-82.82658000000001	636.548088	1036.218105	-41.951458	1026.131342	1155.730905	-541.46384	1068.59581	1176.702218	-424.278531	1103.632339	1130.438039	-463.105386	
69	0.9083329999999999	960.78898	996.143299	-431.956274	962.263969	1006.505046	-200.252736	804.014753	1043.338517	-368.982339	793.662342	1043.453299	-272.509912	952.825924	865.569045	-135.733113	1127.956575	683.492827	-182.037447	851.119292	813.331971	-482.003587	852.446761	700.280592	-447.870344	735.250437	626.8404389999999	-422.432802	1130.707671	503.465809	-242.730456	1061.635579	496.0733	-173.762959	1026.057788	435.713533	-237.102894	666.810289	408.653752	-335.056096	585.172368	367.309237	-401.522204	566.064705	271.245422	-326.711528	826.420262	395.455906	-227.540599	976.415438	246.3432	-240.72022	956.76983	262.840106	-145.299227	406.474148	210.478304	-313.955605	560.319987	82.031589	-265.449924	536.5753989999999	59.823766	-349.877564	992.249689	1465.526037	-480.239432	862.709213	1473.946354	-113.469004	980.049155	1459.134168	-254.647412	874.280384	1518.183122	-328.436371	753.3918	1385.022223	-77.059009	697.882007	1405.571123	-123.973235	679.6852270000001	1333.909369	-63.693099	615.5885469999999	1293.32432	-58.033429	603.308939	1279.857208	-139.285993	958.525256	1338.745409	-557.182307	893.609865	1294.876831	-577.9132	962.574667	1255.616752	-578.689788	928.83698	1182.993105	-618.7015730000001	860.814896	1172.162197	-560.7543439999999	655.805262	1171.612398	-45.905418	688.782455	1058.736977	-86.1874	632.5576170000001	1046.585465	-46.262644	1030.70932	1166.573346	-538.861646	1069.316107	1189.153558	-420.423095	1106.437558	1143.399206	-458.033812	
70	0.916667	965.732796	1000.08574	-431.267022	965.76039	1014.213538	-199.907594	808.583561	1048.612969	-369.32502	797.2234570000001	1050.531065	-272.582935	959.547044	875.534267	-136.0522	1130.352511	689.737859	-186.137416	850.325245	819.911981	-482.792782	845.7297620000001	706.844238	-448.097645	724.49715	639.933205	-423.597448	1143.540831	504.359445	-246.070836	1076.391867	490.254296	-177.199907	1045.855403	427.729991	-240.84282	649.862713	422.838023	-339.677311	566.280693	383.993269	-406.475617	550.001951	283.918524	-334.70269	850.738334	368.868437	-229.383192	1014.244591	235.097657	-246.517806	994.500127	248.740014	-150.454557	394.42354	228.497654	-321.091479	535.903858	87.594239	-270.017752	507.781578	61.945672	-351.137435	994.051093	1472.650931	-478.115587	859.35199	1480.193948	-114.56423	978.523864	1465.14622	-253.189344	873.476253	1523.471998	-328.532418	748.9061830000001	1393.343201	-78.934704	694.690523	1414.495353	-127.030844	674.530636	1343.282531	-66.362055	610.046531	1303.028768	-61.593062	598.875972	1289.555256	-143.288365	962.78015	1346.742485	-556.5738260000001	898.371596	1303.111947	-578.817826	967.537019	1263.994415	-578.710476	934.782389	1191.054966	-619.39301	865.281446	1179.907113	-562.8665559999999	651.187555	1181.792005	-49.389577	685.862336	1069.123624	-89.439688	629.297023	1056.25476	-50.333413	1034.555325	1176.784478	-536.480223	1069.4042	1200.816898	-416.925416	1108.378805	1155.425115	-453.284593	
